HIERARCHY
ROOT reference
{
  OFFSET -65.3212 -1.93545 -120.338
  CHANNELS 6 Xposition Yposition Zposition Zrotation Xrotation Yrotation
  JOINT Hips
  {
    OFFSET 0 78.7191 0
    CHANNELS 3 Zrotation Xrotation Yrotation
    JOINT Chest
    {
      OFFSET 0 8.7983 -4.7612
      CHANNELS 3 Zrotation Xrotation Yrotation
      JOINT Chest2
      {
        OFFSET 0 8.0291 0.4195
        CHANNELS 3 Zrotation Xrotation Yrotation
        JOINT Chest3
        {
          OFFSET 0 9.9351 -2.2114
          CHANNELS 3 Zrotation Xrotation Yrotation
          JOINT Neck
          {
            OFFSET 0 22.3885 -0.4656
            CHANNELS 3 Zrotation Xrotation Yrotation
            JOINT Head
            {
              OFFSET -0.0001 12.643 3.4389
              CHANNELS 3 Zrotation Xrotation Yrotation
              End Site
              {
                OFFSET 0.0001 17.6655 0.5274
              }
            }
          }
          JOINT LeftCollar
          {
            OFFSET 2.2603 21.606 7.4023
            CHANNELS 3 Zrotation Xrotation Yrotation
            JOINT LeftShoulder
            {
              OFFSET 13.5163 -1.1332 -5.0146
              CHANNELS 3 Zrotation Xrotation Yrotation
              JOINT LeftElbow
              {
                OFFSET -0.0995 -28.05 -0.2431
                CHANNELS 3 Zrotation Xrotation Yrotation
                JOINT LeftWrist
                {
                  OFFSET 0.0679 -23.3996 -0.1402
                  CHANNELS 3 Zrotation Xrotation Yrotation
                  JOINT LeftFinger1
                  {
                    OFFSET 0.7932 -9.069 2.5189
                    CHANNELS 3 Zrotation Xrotation Yrotation
                    JOINT LeftFinger11
                    {
                      OFFSET -0.8272 -3.3923 0.5977
                      CHANNELS 3 Zrotation Xrotation Yrotation
                      JOINT LeftFinger12
                      {
                        OFFSET -0.5649 -2.3158 0.4082
                        CHANNELS 3 Zrotation Xrotation Yrotation
                        End Site
                        {
                          OFFSET -0.4919 -1.6479 0.2673
                        }
                      }
                    }
                  }
                  JOINT LeftFinger2
                  {
                    OFFSET 0.9159 -9.2044 0.2193
                    CHANNELS 3 Zrotation Xrotation Yrotation
                    JOINT LeftFinger21
                    {
                      OFFSET 0.0117 -4.1944 -0.0248
                      CHANNELS 3 Zrotation Xrotation Yrotation
                      JOINT LeftFinger22
                      {
                        OFFSET 0.0071 -2.3249 -0.0142
                        CHANNELS 3 Zrotation Xrotation Yrotation
                        End Site
                        {
                          OFFSET -0.1475 -2.0882 0.0028
                        }
                      }
                    }
                  }
                  JOINT LeftFinger3
                  {
                    OFFSET 0.6113 -8.7231 -2.0637
                    CHANNELS 3 Zrotation Xrotation Yrotation
                    JOINT LeftFinger31
                    {
                      OFFSET -0.1927 -3.8059 -0.2383
                      CHANNELS 3 Zrotation Xrotation Yrotation
                      JOINT LeftFinger32
                      {
                        OFFSET -0.1091 -2.1688 -0.1362
                        CHANNELS 3 Zrotation Xrotation Yrotation
                        End Site
                        {
                          OFFSET -0.2358 -1.9176 -0.0906
                        }
                      }
                    }
                  }
                  JOINT LeftFinger4
                  {
                    OFFSET -0.6151 -8.0947 -3.5641
                    CHANNELS 3 Zrotation Xrotation Yrotation
                    JOINT LeftFinger41
                    {
                      OFFSET -0.4882 -2.341 -0.6462
                      CHANNELS 3 Zrotation Xrotation Yrotation
                      JOINT LeftFinger42
                      {
                        OFFSET -0.3575 -1.7167 -0.4742
                        CHANNELS 3 Zrotation Xrotation Yrotation
                        End Site
                        {
                          OFFSET -0.4187 -1.5237 -0.3496
                        }
                      }
                    }
                  }
                  JOINT LeftFinger0
                  {
                    OFFSET -1.42 -1.8761 1.4223
                    CHANNELS 3 Zrotation Xrotation Yrotation
                    JOINT LeftFinger01
                    {
                      OFFSET -1.1471 -3.4929 2.6334
                      CHANNELS 3 Zrotation Xrotation Yrotation
                      JOINT LeftFinger02
                      {
                        OFFSET -0.823 -2.3 1.6571
                        CHANNELS 3 Zrotation Xrotation Yrotation
                        End Site
                        {
                          OFFSET -0.5822 -1.6914 1.1582
                        }
                      }
                    }
                  }
                }
              }
            }
          }
          JOINT RightCollar
          {
            OFFSET -2.2603 21.606 7.4023
            CHANNELS 3 Zrotation Xrotation Yrotation
            JOINT RightShoulder
            {
              OFFSET -13.5187 -1.1334 -5.0155
              CHANNELS 3 Zrotation Xrotation Yrotation
              JOINT RightElbow
              {
                OFFSET 0.0994 -28.0499 -0.2431
                CHANNELS 3 Zrotation Xrotation Yrotation
                JOINT RightWrist
                {
                  OFFSET -0.0679 -23.3996 -0.1402
                  CHANNELS 3 Zrotation Xrotation Yrotation
                  JOINT RightFinger1
                  {
                    OFFSET -0.7932 -9.0691 2.5189
                    CHANNELS 3 Zrotation Xrotation Yrotation
                    JOINT RightFinger11
                    {
                      OFFSET 0.8272 -3.3923 0.5977
                      CHANNELS 3 Zrotation Xrotation Yrotation
                      JOINT RightFinger12
                      {
                        OFFSET 0.565 -2.3158 0.4082
                        CHANNELS 3 Zrotation Xrotation Yrotation
                        End Site
                        {
                          OFFSET 0.4919 -1.6479 0.2673
                        }
                      }
                    }
                  }
                  JOINT RightFinger2
                  {
                    OFFSET -0.916 -9.2044 0.2193
                    CHANNELS 3 Zrotation Xrotation Yrotation
                    JOINT RightFinger21
                    {
                      OFFSET -0.0117 -4.1944 -0.0248
                      CHANNELS 3 Zrotation Xrotation Yrotation
                      JOINT RightFinger22
                      {
                        OFFSET -0.0071 -2.3249 -0.0142
                        CHANNELS 3 Zrotation Xrotation Yrotation
                        End Site
                        {
                          OFFSET 0.1475 -2.0882 0.0028
                        }
                      }
                    }
                  }
                  JOINT RightFinger3
                  {
                    OFFSET -0.6113 -8.7231 -2.0637
                    CHANNELS 3 Zrotation Xrotation Yrotation
                    JOINT RightFinger31
                    {
                      OFFSET 0.1927 -3.8059 -0.2383
                      CHANNELS 3 Zrotation Xrotation Yrotation
                      JOINT RightFinger32
                      {
                        OFFSET 0.1091 -2.1688 -0.1362
                        CHANNELS 3 Zrotation Xrotation Yrotation
                        End Site
                        {
                          OFFSET 0.2358 -1.9176 -0.0906
                        }
                      }
                    }
                  }
                  JOINT RightFinger4
                  {
                    OFFSET 0.6151 -8.0947 -3.564
                    CHANNELS 3 Zrotation Xrotation Yrotation
                    JOINT RightFinger41
                    {
                      OFFSET 0.4882 -2.341 -0.6462
                      CHANNELS 3 Zrotation Xrotation Yrotation
                      JOINT RightFinger42
                      {
                        OFFSET 0.3574 -1.7166 -0.4742
                        CHANNELS 3 Zrotation Xrotation Yrotation
                        End Site
                        {
                          OFFSET 0.4187 -1.5237 -0.3496
                        }
                      }
                    }
                  }
                  JOINT RightFinger0
                  {
                    OFFSET 1.4199 -1.8761 1.4221
                    CHANNELS 3 Zrotation Xrotation Yrotation
                    JOINT RightFinger01
                    {
                      OFFSET 1.1472 -3.4929 2.6336
                      CHANNELS 3 Zrotation Xrotation Yrotation
                      JOINT RightFinger02
                      {
                        OFFSET 0.8229 -2.3 1.6571
                        CHANNELS 3 Zrotation Xrotation Yrotation
                        End Site
                        {
                          OFFSET 0.5822 -1.6914 1.1582
                        }
                      }
                    }
                  }
                }
              }
            }
          }
        }
      }
    }
    JOINT RightHip
    {
      OFFSET -9.412 3.9771 -0.7758
      CHANNELS 3 Zrotation Xrotation Yrotation
      JOINT RightKnee
      {
        OFFSET -0.7531 -40.938 0
        CHANNELS 3 Zrotation Xrotation Yrotation
        JOINT RightAnkle
        {
          OFFSET 0 -40.1986 0
          CHANNELS 3 Zrotation Xrotation Yrotation
          JOINT RightToe
          {
            OFFSET 0 -4.4182 9.239
            CHANNELS 3 Zrotation Xrotation Yrotation
            End Site
            {
              OFFSET 0 0 6.1981
            }
          }
        }
      }
    }
    JOINT LeftHip
    {
      OFFSET 9.4119 3.9773 -0.7758
      CHANNELS 3 Zrotation Xrotation Yrotation
      JOINT LeftKnee
      {
        OFFSET 0.7532 -40.9383 0
        CHANNELS 3 Zrotation Xrotation Yrotation
        JOINT LeftAnkle
        {
          OFFSET 0 -40.1986 0
          CHANNELS 3 Zrotation Xrotation Yrotation
          JOINT LeftToe
          {
            OFFSET 0 -4.4182 9.239
            CHANNELS 3 Zrotation Xrotation Yrotation
            End Site
            {
              OFFSET 0 0 6.1981
            }
          }
        }
      }
    }
  }
}
MOTION
Frames:	4
Frame Time:	0.0333333
0.638001 -57.9883 24.5201 0 0 -0 4.54633 -23.457 -1.37032 -2.00995 9.79795 0.131618 -4.13604 19.5849 0.632175 -4.13605 19.5849 0.632176 4.35337 -3.93689 5.80904 6.32374 -24.0988 5.50266 9.09284 5.12322 -6.43767 21.4301 -1.08078 21.0918 -111.964 -55.2115 -69.3089 -2.01147 -19.5398 -52.0768 11.7021 -1.27959 2.71733 -6.7117 8.13557 -1.57227 -6.8368 7.86448 -2.14546 18.0145 -10.5855 3.43825 -0.0128084 0.00233044 8.33297e-005 1.63766e-005 -1.37502e-005 1.5151e-006 21.2217 -14.5316 6.81162 -0.326832 -1.97716 0.681615 4.03418 -2.73962 0.628715 36.5612 -19.7704 12.4627 -0.0653386 -1.76152 1.52155 4.04459 -2.6941 0.763111 -1.57902 -17.0803 10.0588 4.23356 5.47859 -1.35342 8.70091 10.8929 -3.15294 -24.7327 2.7225 29.5729 -103.097 -27.0791 -64.6646 -14.7067 -65.2364 -46.3063 -7.57453 7.58996 41.2406 14.7503 10.9045 1.22142 9.93306 3.36084 -0.45223 12.5745 4.23393 -0.669659 17.2449 6.8736 1.71485 24.9319 8.29829 -1.23651 16.5858 5.60838 -0.420913 15.8041 5.46851 -1.4295 24.3039 9.32841 -0.624103 16.087 6.23548 0.031605 17.9044 7.07563 -3.17045 20.6855 7.85436 0.342269 19.9879 7.59182 0.377309 -2.02456 10.3411 2.93749 -0.214732 0.493031 0.155541 -2.47736 5.46605 1.84449 -33.5808 10.1479 34.4163 155.71 42.0062 -135.865 87.3019 -83.0677 101.275 8.0331 -25.3891 5.44326 52.7378 -80.5518 41.0978 -176.097 46.2252 157.628 1.68483 -26.1911 -11.7266 -0.204258 -0.183005 -6.45564e-005 
0.661876 -58.2529 24.5045 0 0 -0 4.54363 -23.4458 -1.3896 -2.00404 9.60129 0.162324 -4.12501 19.1906 0.685543 -4.12502 19.1907 0.685546 4.12505 -3.39343 6.40849 6.42217 -23.3883 6.02494 9.09287 5.12319 -6.43768 21.2956 -1.41098 20.9368 -110.386 -55.5012 -68.0632 -2.01373 -19.1156 -51.6917 11.7021 -1.27961 2.71734 -6.71171 8.13556 -1.57226 -6.83678 7.8645 -2.1454 18.0145 -10.5855 3.43823 -0.0127954 0.00233736 0.000109921 2.06116e-005 -1.54228e-005 3.30862e-006 21.2218 -14.5316 6.81165 -0.326856 -1.97712 0.681656 4.03419 -2.73961 0.628714 36.5612 -19.7704 12.4627 -0.0653995 -1.76152 1.52157 4.04462 -2.69406 0.763151 -1.579 -17.0803 10.0588 4.23355 5.47862 -1.35341 8.70088 10.8929 -3.15294 -24.7326 2.72248 29.5728 -100.879 -27.3932 -63.3425 -14.9815 -66.9723 -46.7965 -7.78239 7.08424 41.8311 17.9198 12.785 1.14072 12.5888 4.24141 -0.66949 15.1069 5.05856 -0.915263 16.7827 6.87317 2.0678 22.4937 7.52804 -0.957977 16.0383 5.42728 -0.381206 15.1119 5.2908 -0.914607 21.8725 8.42732 -0.383924 15.5081 6.01326 0.0608664 16.5525 5.55876 -1.89941 18.9046 7.18265 0.424952 17.6611 6.71163 0.470367 -2.63648 11.4207 3.66187 -0.245937 0.564383 0.178218 -2.84696 6.23926 2.12828 -33.7855 10.2932 34.795 155.77 41.772 -135.665 90.6722 -82.9637 104.711 8.0331 -25.3891 5.4433 54.9687 -80.8658 43.2575 -176.13 45.9404 157.639 1.59673 -26.0237 -11.7554 -0.204291 -0.183019 -1.97031e-005 
0.689314 -58.4595 24.4844 0 0 -0 4.55508 -23.444 -1.36612 -1.99593 9.43361 0.216016 -4.11397 18.8536 0.786694 -4.11398 18.8536 0.786698 3.75992 -2.88514 7.45659 6.57342 -22.5931 7.03052 9.09288 5.12318 -6.43771 21.1389 -1.86861 20.7446 -109.092 -55.7333 -67.0406 -2.0544 -18.5828 -51.4074 11.7021 -1.27963 2.71733 -6.71173 8.13558 -1.57224 -6.8368 7.86447 -2.14552 18.0145 -10.5855 3.43823 -0.0128433 0.00233239 0.000105725 2.41184e-005 2.05062e-005 2.84242e-005 21.2217 -14.5316 6.81168 -0.326834 -1.97708 0.681744 4.03419 -2.73959 0.62873 36.5612 -19.7705 12.4627 -0.0654064 -1.76152 1.52158 4.04456 -2.69415 0.763065 -1.57901 -17.0803 10.0588 4.23353 5.47863 -1.35338 8.70089 10.8929 -3.15294 -24.7326 2.72249 29.5728 -98.7475 -27.5867 -62.0359 -15.3666 -68.7403 -47.4265 -7.98275 6.62966 42.4147 20.4189 14.2429 1.02955 14.6563 4.91249 -0.868846 17.0925 5.69552 -1.13301 16.4214 6.87264 2.343 20.5951 6.92407 -0.758414 15.6037 5.28319 -0.350971 14.5716 5.15149 -0.514142 19.9742 7.71866 -0.217102 15.0545 5.83889 0.0821895 15.4958 4.36317 -0.921139 17.5142 6.65567 0.474861 15.845 6.02106 0.517952 -3.11237 12.2634 4.2373 -0.270432 0.620329 0.196034 -3.14368 6.85206 2.35755 -34.0052 10.4143 35.0831 155.803 41.5838 -135.444 93.0677 -82.8789 107.198 8.03309 -25.3891 5.44332 56.7097 -81.1431 44.9742 -176.162 45.7287 157.668 1.52621 -25.8639 -11.7734 -0.20433 -0.183018 3.92153e-005 
0.721589 -58.5419 24.4578 0 0 -0 4.59719 -23.464 -1.24883 -1.98576 9.32839 0.30167 -4.1054 18.6402 0.955288 -4.10541 18.6402 0.955293 3.25551 -2.50096 8.99874 6.75861 -21.783 8.57959 9.09289 5.12323 -6.43779 20.9461 -2.5232 20.503 -108.477 -55.8718 -66.5573 -2.14967 -17.9078 -51.3283 11.7021 -1.27961 2.71738 -6.71173 8.13557 -1.57223 -6.83679 7.86447 -2.1455 18.0145 -10.5855 3.43824 -0.0128116 0.00234595 9.58512e-005 4.59485e-005 1.65339e-005 7.48319e-005 21.2217 -14.5316 6.81176 -0.326868 -1.97718 0.681571 4.03419 -2.7396 0.628749 36.5612 -19.7704 12.4627 -0.0653326 -1.76152 1.52157 4.04457 -2.69417 0.763074 -1.57901 -17.0803 10.0589 4.23351 5.47863 -1.35333 8.70088 10.8929 -3.15292 -24.7327 2.7225 29.5729 -97.1912 -27.7976 -61.0705 -15.3539 -70.0277 -47.5729 -8.1591 6.28033 42.8983 21.4339 14.828 0.972521 15.4958 5.18371 -0.956117 17.8957 5.95057 -1.22727 16.2755 6.87233 2.45397 19.8256 6.66961 -0.690956 15.4282 5.22492 -0.339059 14.3536 5.09513 -0.352967 19.2134 7.42732 -0.165414 14.8713 5.7684 0.0904195 15.0749 3.88201 -0.525905 16.9516 6.44659 0.499657 15.1123 5.74178 0.530925 -3.3044 12.6029 4.47336 -0.277451 0.648315 0.204803 -3.26433 7.09926 2.45116 -34.2196 10.4952 35.1644 155.788 41.4971 -135.223 93.6597 -82.8697 107.907 8.03308 -25.3891 5.44336 57.158 -81.3438 45.4999 -176.185 45.6735 157.72 1.51311 -25.7261 -11.7734 -0.204347 -0.18311 -7.27166e-005 
